<svg width="16" height="16" viewBox="0 0 16 16" fill="none" xmlns="http://www.w3.org/2000/svg">
<mask id="path-1-outside-1_285_1088" maskUnits="userSpaceOnUse" x="-1" y="-1" width="18" height="18" fill="black">
<rect fill="white" x="-1" y="-1" width="18" height="18"/>
<path d="M8 15.1826C3.92041 15.1826 0.529297 11.7915 0.529297 7.71191C0.529297 3.625 3.91309 0.241211 7.99268 0.241211C12.0796 0.241211 15.4707 3.625 15.4707 7.71191C15.4707 11.7915 12.0869 15.1826 8 15.1826ZM5.53906 10.7881C5.70752 10.7881 5.86133 10.7295 5.97852 10.6123L8 8.57617L10.0288 10.6123C10.1387 10.7295 10.2925 10.7881 10.4609 10.7881C10.8052 10.7881 11.0762 10.5171 11.0762 10.1802C11.0762 10.0117 11.0176 9.85791 10.8931 9.74805L8.86426 7.71924L10.9004 5.68311C11.0322 5.55127 11.0835 5.41943 11.0835 5.25098C11.0835 4.91406 10.8125 4.65039 10.4756 4.65039C10.3145 4.65039 10.1826 4.70166 10.0581 4.82617L8 6.86963L5.95654 4.8335C5.83936 4.72363 5.70752 4.66504 5.53906 4.66504C5.20215 4.66504 4.93848 4.92139 4.93848 5.26562C4.93848 5.42676 4.99707 5.57324 5.11426 5.69043L7.14307 7.71924L5.11426 9.75537C4.99707 9.86523 4.93848 10.019 4.93848 10.1802C4.93848 10.5171 5.20215 10.7881 5.53906 10.7881Z"/>
</mask>
<path d="M5.97852 10.6123L6.68563 11.3194L6.68817 11.3169L5.97852 10.6123ZM8 8.57617L8.70838 7.87034L7.99872 7.15812L7.29035 7.87162L8 8.57617ZM10.0288 10.6123L10.7583 9.92836L10.7479 9.91726L10.7372 9.90647L10.0288 10.6123ZM10.8931 9.74805L10.186 10.4552L10.208 10.4772L10.2314 10.4979L10.8931 9.74805ZM8.86426 7.71924L8.15715 7.01213L7.45004 7.71924L8.15715 8.42634L8.86426 7.71924ZM10.0581 4.82617L10.7627 5.5358L10.7652 5.53328L10.0581 4.82617ZM8 6.86963L7.29416 7.578L7.99875 8.28006L8.70458 7.57926L8 6.86963ZM5.95654 4.8335L6.66238 4.12512L6.65159 4.11437L6.64048 4.10396L5.95654 4.8335ZM7.14307 7.71924L7.85145 8.42507L8.55601 7.71797L7.85017 7.01213L7.14307 7.71924ZM5.11426 9.75537L5.7982 10.4849L5.81062 10.4733L5.82264 10.4612L5.11426 9.75537ZM8 14.1826C4.47269 14.1826 1.5293 11.2392 1.5293 7.71191H-0.470703C-0.470703 12.3438 3.36813 16.1826 8 16.1826V14.1826ZM1.5293 7.71191C1.5293 4.17665 4.46601 1.24121 7.99268 1.24121V-0.758789C3.36017 -0.758789 -0.470703 3.07335 -0.470703 7.71191H1.5293ZM7.99268 1.24121C11.5286 1.24121 14.4707 4.17856 14.4707 7.71191H16.4707C16.4707 3.07144 12.6306 -0.758789 7.99268 -0.758789V1.24121ZM14.4707 7.71191C14.4707 11.2399 11.534 14.1826 8 14.1826V16.1826C12.6398 16.1826 16.4707 12.3432 16.4707 7.71191H14.4707ZM5.53906 11.7881C5.94851 11.7881 6.36444 11.6406 6.68562 11.3194L5.27141 9.9052C5.3103 9.86631 5.35839 9.83471 5.41059 9.81409C5.46179 9.79386 5.50684 9.78809 5.53906 9.78809V11.7881ZM6.68817 11.3169L8.70965 9.28072L7.29035 7.87162L5.26886 9.90775L6.68817 11.3169ZM7.29162 9.282L9.32043 11.3181L10.7372 9.90647L8.70838 7.87034L7.29162 9.282ZM9.29927 11.2962C9.6254 11.6441 10.0586 11.7881 10.4609 11.7881V9.78809C10.5264 9.78809 10.6519 9.81487 10.7583 9.92836L9.29927 11.2962ZM10.4609 11.7881C11.3496 11.7881 12.0762 11.0772 12.0762 10.1802H10.0762C10.0762 9.957 10.2607 9.78809 10.4609 9.78809V11.7881ZM12.0762 10.1802C12.0762 9.77432 11.9289 9.32837 11.5547 8.99821L10.2314 10.4979C10.1754 10.4484 10.133 10.3869 10.1069 10.3235C10.0817 10.2624 10.0762 10.2115 10.0762 10.1802H12.0762ZM11.6002 9.04094L9.57136 7.01213L8.15715 8.42634L10.186 10.4552L11.6002 9.04094ZM9.57136 8.42634L11.6075 6.39021L10.1933 4.976L8.15715 7.01213L9.57136 8.42634ZM11.6075 6.39021C11.9257 6.07204 12.0835 5.68634 12.0835 5.25098H10.0835C10.0835 5.23005 10.0874 5.17048 10.118 5.09701C10.1481 5.02439 10.1853 4.98398 10.1933 4.976L11.6075 6.39021ZM12.0835 5.25098C12.0835 4.346 11.3489 3.65039 10.4756 3.65039V5.65039C10.2761 5.65039 10.0835 5.48213 10.0835 5.25098H12.0835ZM10.4756 3.65039C10.0503 3.65039 9.66381 3.80625 9.351 4.11907L10.7652 5.53328C10.749 5.54945 10.7058 5.58654 10.6351 5.61576C10.5642 5.64508 10.5045 5.65039 10.4756 5.65039V3.65039ZM9.35353 4.11654L7.29542 6.16L8.70458 7.57926L10.7627 5.5358L9.35353 4.11654ZM8.70584 6.16125L6.66238 4.12512L5.25071 5.54187L7.29416 7.578L8.70584 6.16125ZM6.64048 4.10396C6.35434 3.8357 5.98319 3.66504 5.53906 3.66504V5.66504C5.50316 5.66504 5.44722 5.65794 5.38504 5.63224C5.32456 5.60724 5.28706 5.57659 5.2726 5.56303L6.64048 4.10396ZM5.53906 3.66504C4.6579 3.66504 3.93848 4.3611 3.93848 5.26562H5.93848C5.93848 5.35673 5.90031 5.46327 5.81652 5.54635C5.73396 5.62821 5.62965 5.66504 5.53906 5.66504V3.66504ZM3.93848 5.26562C3.93848 5.68707 4.09899 6.08938 4.40715 6.39754L5.82136 4.98332C5.85268 5.01464 5.88463 5.059 5.90759 5.11495C5.93042 5.1706 5.93848 5.22336 5.93848 5.26562H3.93848ZM4.40715 6.39754L6.43596 8.42634L7.85017 7.01213L5.82136 4.98332L4.40715 6.39754ZM6.43469 7.01341L4.40588 9.04954L5.82264 10.4612L7.85145 8.42507L6.43469 7.01341ZM4.43032 9.02583C4.08678 9.34789 3.93848 9.77841 3.93848 10.1802H5.93848C5.93848 10.2597 5.90736 10.3826 5.7982 10.4849L4.43032 9.02583ZM3.93848 10.1802C3.93848 11.0535 4.63409 11.7881 5.53906 11.7881V9.78809C5.77021 9.78809 5.93848 9.98072 5.93848 10.1802H3.93848Z" fill="#FF7E7E" mask="url(#path-1-outside-1_285_1088)"/>
</svg>
