<svg width="16" height="16" viewBox="0 0 16 16" fill="none" xmlns="http://www.w3.org/2000/svg">
<path d="M7.81633 15.1826C3.73674 15.1826 0.345623 11.7915 0.345623 7.71191C0.345623 3.625 3.72941 0.241211 7.809 0.241211C11.8959 0.241211 15.287 3.625 15.287 7.71191C15.287 11.7915 11.9032 15.1826 7.81633 15.1826ZM4.24211 7.71924C4.24211 8.09277 4.50578 8.3418 4.88664 8.3418H7.17912V10.6416C7.17912 11.0151 7.43547 11.2861 7.809 11.2861C8.18986 11.2861 8.45353 11.0225 8.45353 10.6416V8.3418H10.7533C11.1269 8.3418 11.3979 8.09277 11.3979 7.71924C11.3979 7.33838 11.1269 7.07471 10.7533 7.07471H8.45353V4.78223C8.45353 4.40137 8.18986 4.13037 7.809 4.13037C7.43547 4.13037 7.17912 4.40137 7.17912 4.78223V7.07471H4.88664C4.50578 7.07471 4.24211 7.33838 4.24211 7.71924Z" fill="#FF7E7E"/>
</svg>
