<svg width="26" height="26" viewBox="0 0 26 26" fill="none" xmlns="http://www.w3.org/2000/svg">
<mask id="path-1-outside-1_338_1634" maskUnits="userSpaceOnUse" x="-1" y="-1" width="28" height="28" fill="black">
<rect fill="white" x="-1" y="-1" width="28" height="28"/>
<path d="M12.6362 25.6499C5.83691 25.6499 0.185059 20.0103 0.185059 13.1987C0.185059 6.39941 5.82471 0.747559 12.624 0.747559C19.4355 0.747559 25.0874 6.39941 25.0874 13.1987C25.0874 20.0103 19.4478 25.6499 12.6362 25.6499ZM17.6167 9.68311L18.5322 8.76758C18.9473 8.35254 18.9717 7.87646 18.5811 7.49805L18.3003 7.20508C17.9219 6.82666 17.458 6.87549 17.043 7.26611L16.1152 8.19385L17.6167 9.68311ZM8.60791 18.6553L16.8599 10.4399L15.3584 8.93848L7.13086 17.166L6.42285 18.8262C6.28857 19.1436 6.59375 19.4121 6.8623 19.3145L8.60791 18.6553Z"/>
</mask>
<path d="M12.6362 25.6499C5.83691 25.6499 0.185059 20.0103 0.185059 13.1987C0.185059 6.39941 5.82471 0.747559 12.624 0.747559C19.4355 0.747559 25.0874 6.39941 25.0874 13.1987C25.0874 20.0103 19.4478 25.6499 12.6362 25.6499ZM17.6167 9.68311L18.5322 8.76758C18.9473 8.35254 18.9717 7.87646 18.5811 7.49805L18.3003 7.20508C17.9219 6.82666 17.458 6.87549 17.043 7.26611L16.1152 8.19385L17.6167 9.68311ZM8.60791 18.6553L16.8599 10.4399L15.3584 8.93848L7.13086 17.166L6.42285 18.8262C6.28857 19.1436 6.59375 19.4121 6.8623 19.3145L8.60791 18.6553Z" fill="white"/>
<path d="M17.6167 9.68311L16.9125 10.3931L17.6196 11.0944L18.3238 10.3902L17.6167 9.68311ZM18.5811 7.49805L17.8591 8.18995L17.8719 8.20336L17.8853 8.21629L18.5811 7.49805ZM18.3003 7.20508L19.0223 6.51317L19.0149 6.50549L19.0074 6.49797L18.3003 7.20508ZM17.043 7.26611L16.3576 6.53791L16.3466 6.5483L16.3359 6.55901L17.043 7.26611ZM16.1152 8.19385L15.4081 7.48674L14.6981 8.19674L15.411 8.90383L16.1152 8.19385ZM8.60791 18.6553L8.96118 19.5908L9.16161 19.5151L9.31344 19.364L8.60791 18.6553ZM16.8599 10.4399L17.5654 11.1486L18.2757 10.4415L17.567 9.73283L16.8599 10.4399ZM15.3584 8.93848L16.0655 8.23137L15.3584 7.52426L14.6513 8.23137L15.3584 8.93848ZM7.13086 17.166L6.42375 16.4589L6.28693 16.5957L6.21102 16.7737L7.13086 17.166ZM6.42285 18.8262L5.503 18.4339L5.50188 18.4365L6.42285 18.8262ZM6.8623 19.3145L7.20407 20.2543L7.21558 20.25L6.8623 19.3145ZM12.6362 24.6499C6.38856 24.6499 1.18506 19.4573 1.18506 13.1987H-0.814941C-0.814941 20.5632 5.28527 26.6499 12.6362 26.6499V24.6499ZM1.18506 13.1987C1.18506 6.95043 6.37826 1.74756 12.624 1.74756V-0.252441C5.27115 -0.252441 -0.814941 5.8484 -0.814941 13.1987H1.18506ZM12.624 1.74756C18.8839 1.74756 24.0874 6.95233 24.0874 13.1987H26.0874C26.0874 5.84649 19.9872 -0.252441 12.624 -0.252441V1.74756ZM24.0874 13.1987C24.0874 19.458 18.8955 24.6499 12.6362 24.6499V26.6499C20 26.6499 26.0874 20.5625 26.0874 13.1987H24.0874ZM18.3238 10.3902L19.2393 9.47468L17.8251 8.06047L16.9096 8.976L18.3238 10.3902ZM19.2393 9.47468C19.5695 9.14448 19.8354 8.69742 19.8579 8.161C19.8812 7.60615 19.6368 7.12852 19.2768 6.77981L17.8853 8.21629C17.9041 8.23455 17.8951 8.23174 17.8821 8.20228C17.8679 8.17024 17.8576 8.12572 17.8596 8.07716C17.8638 7.97714 17.91 7.97564 17.8251 8.06047L19.2393 9.47468ZM19.303 6.80614L19.0223 6.51317L17.5783 7.89698L17.8591 8.18995L19.303 6.80614ZM19.0074 6.49797C18.6472 6.13779 18.1662 5.91448 17.6217 5.94924C17.1059 5.98216 16.677 6.2373 16.3576 6.53791L17.7283 7.99431C17.824 7.9043 17.8345 7.93972 17.7491 7.94517C17.7045 7.94802 17.6588 7.93998 17.6215 7.92457C17.5865 7.91018 17.5786 7.89763 17.5932 7.91218L19.0074 6.49797ZM16.3359 6.55901L15.4081 7.48674L16.8223 8.90095L17.7501 7.97322L16.3359 6.55901ZM15.411 8.90383L16.9125 10.3931L18.3209 8.97312L16.8194 7.48386L15.411 8.90383ZM9.31344 19.364L17.5654 11.1486L16.1543 9.73126L7.90238 17.9466L9.31344 19.364ZM17.567 9.73283L16.0655 8.23137L14.6513 9.64558L16.1528 11.147L17.567 9.73283ZM14.6513 8.23137L6.42375 16.4589L7.83797 17.8731L16.0655 9.64558L14.6513 8.23137ZM6.21102 16.7737L5.50301 18.4339L7.3427 19.2185L8.0507 17.5583L6.21102 16.7737ZM5.50188 18.4365C5.00446 19.6123 6.17005 20.6302 7.20405 20.2542L6.52056 18.3747C6.79423 18.2751 7.05407 18.3719 7.20435 18.5246C7.38044 18.7036 7.44201 18.9837 7.34382 19.2158L5.50188 18.4365ZM7.21558 20.25L8.96118 19.5908L8.25464 17.7198L6.50903 18.3789L7.21558 20.25Z" fill="#FF7E7E" mask="url(#path-1-outside-1_338_1634)"/>
</svg>
